REM DIRINDEX 1\2\6,1\2\7,1\2\8,1\2\9,1\3\10,1\3\11,1\4\12,1\4\13,1\4\14,1\5\15,1\5\16,1\5\17
REM DIRNAME cjc020,folder01,folder02,folder03,folder04,folder05,folder06,folder07,folder08,folder09,folder10,folder11,folder12,folder13,folder14,folder15,folder16
TITLE ""
FILE "1900_3_084 sec14_1384_1400.mp3" MP3
  TRACK 01 AUDIO
    TITLE "0:"
    INDEX 01 00:00:00
  TRACK 02 AUDIO
    TITLE "17:cjc020_8748"
    INDEX 01 00:00:13
  TRACK 03 AUDIO
    TITLE "0:"
    INDEX 01 00:01:56
  TRACK 04 AUDIO
    TITLE "16:cjc020_8749"
    INDEX 01 00:01:62
  TRACK 05 AUDIO
    TITLE "0:"
    INDEX 01 00:02:71
  TRACK 06 AUDIO
    TITLE "17:cjc020_8750"
    INDEX 01 00:03:51
  TRACK 07 AUDIO
    TITLE "0:"
    INDEX 01 00:04:72
  TRACK 08 AUDIO
    TITLE "16:cjc020_8751"
    INDEX 01 00:05:03
  TRACK 09 AUDIO
    TITLE "0:"
    INDEX 01 00:06:12
  TRACK 10 AUDIO
    TITLE "17:cjc020_8752"
    INDEX 01 00:06:65
  TRACK 11 AUDIO
    TITLE "0:"
    INDEX 01 00:07:66
  TRACK 12 AUDIO
    TITLE "16:cjc020_8753"
    INDEX 01 00:07:70
  TRACK 13 AUDIO
    TITLE "0:"
    INDEX 01 00:09:12
  TRACK 14 AUDIO
    TITLE "17:cjc020_8754"
    INDEX 01 00:09:65
  TRACK 15 AUDIO
    TITLE "0:"
    INDEX 01 00:11:05
  TRACK 16 AUDIO
    TITLE "16:cjc020_8755"
    INDEX 01 00:11:07
  TRACK 17 AUDIO
    TITLE "0:"
    INDEX 01 00:12:24
  TRACK 18 AUDIO
    TITLE "17:cjc020_8756"
    INDEX 01 00:13:04
  TRACK 19 AUDIO
    TITLE "0:"
    INDEX 01 00:14:21
  TRACK 20 AUDIO
    TITLE "16:cjc020_8757"
    INDEX 01 00:14:23
  TRACK 21 AUDIO
    TITLE "0:"
    INDEX 01 00:15:38
  TRACK 22 AUDIO
    TITLE "17:cjc020_8758"
    INDEX 01 00:16:18
  TRACK 23 AUDIO
    TITLE "0:"
    INDEX 01 00:17:41
  TRACK 24 AUDIO
    TITLE "16:cjc020_8759"
    INDEX 01 00:17:43
  TRACK 25 AUDIO
    TITLE "0:"
    INDEX 01 00:19:03
  TRACK 26 AUDIO
    TITLE "17:cjc020_8760"
    INDEX 01 00:19:56
  TRACK 27 AUDIO
    TITLE "0:"
    INDEX 01 00:21:11
  TRACK 28 AUDIO
    TITLE "16:cjc020_8761"
    INDEX 01 00:21:17
  TRACK 29 AUDIO
    TITLE "0:"
    INDEX 01 00:22:36
  TRACK 30 AUDIO
    TITLE "17:cjc020_8762"
    INDEX 01 00:23:22
  TRACK 31 AUDIO
    TITLE "0:"
    INDEX 01 00:24:29
  TRACK 32 AUDIO
    TITLE "16:cjc020_8763"
    INDEX 01 00:24:33
  TRACK 33 AUDIO
    TITLE "0:"
    INDEX 01 00:25:39
  TRACK 34 AUDIO
    TITLE "17:cjc020_8764"
    INDEX 01 00:26:28
  TRACK 35 AUDIO
    TITLE "0:"
    INDEX 01 00:27:41
  TRACK 36 AUDIO
    TITLE "16:cjc020_8765"
    INDEX 01 00:27:47
  TRACK 37 AUDIO
    TITLE "0:"
    INDEX 01 00:29:17
  TRACK 38 AUDIO
    TITLE "17:cjc020_8766"
    INDEX 01 00:29:70
  TRACK 39 AUDIO
    TITLE "0:"
    INDEX 01 00:32:33
  TRACK 40 AUDIO
    TITLE "16:cjc020_8767"
    INDEX 01 00:32:41
  TRACK 41 AUDIO
    TITLE "0:"
    INDEX 01 00:33:69
  TRACK 42 AUDIO
    TITLE "17:cjc020_8768"
    INDEX 01 00:34:51
  TRACK 43 AUDIO
    TITLE "0:"
    INDEX 01 00:36:15
  TRACK 44 AUDIO
    TITLE "16:cjc020_8769"
    INDEX 01 00:36:19
  TRACK 45 AUDIO
    TITLE "0:"
    INDEX 01 00:37:52
  TRACK 46 AUDIO
    TITLE "17:cjc020_8770"
    INDEX 01 00:38:31
  TRACK 47 AUDIO
    TITLE "0:"
    INDEX 01 00:39:62
  TRACK 48 AUDIO
    TITLE "16:cjc020_8771"
    INDEX 01 00:39:70
  TRACK 49 AUDIO
    TITLE "0:"
    INDEX 01 00:40:70
  TRACK 50 AUDIO
    TITLE "17:cjc020_8772"
    INDEX 01 00:41:49
  TRACK 51 AUDIO
    TITLE "0:"
    INDEX 01 00:42:55
  TRACK 52 AUDIO
    TITLE "16:cjc020_8773"
    INDEX 01 00:42:63
  TRACK 53 AUDIO
    TITLE "0:"
    INDEX 01 00:44:01
  TRACK 54 AUDIO
    TITLE "17:cjc020_8774"
    INDEX 01 00:44:58
  TRACK 55 AUDIO
    TITLE "0:"
    INDEX 01 00:47:15
  TRACK 56 AUDIO
    TITLE "16:cjc020_8775"
    INDEX 01 00:47:21
  TRACK 57 AUDIO
    TITLE "0:"
    INDEX 01 00:48:53
  TRACK 58 AUDIO
    TITLE "17:cjc020_8776"
    INDEX 01 00:49:33
  TRACK 59 AUDIO
    TITLE "0:"
    INDEX 01 00:50:54
  TRACK 60 AUDIO
    TITLE "16:cjc020_8777"
    INDEX 01 00:50:60
  TRACK 61 AUDIO
    TITLE "0:"
    INDEX 01 00:52:18
  TRACK 62 AUDIO
    TITLE "17:cjc020_8778"
    INDEX 01 00:52:71
  TRACK 63 AUDIO
    TITLE "0:"
    INDEX 01 00:54:13
  TRACK 64 AUDIO
    TITLE "16:cjc020_8779"
    INDEX 01 00:54:15
  TRACK 65 AUDIO
    TITLE "0:"
    INDEX 01 00:55:24
  TRACK 66 AUDIO
    TITLE "17:cjc020_8780"
    INDEX 01 00:56:06
  TRACK 67 AUDIO
    TITLE "0:"
    INDEX 01 00:57:23
  TRACK 68 AUDIO
    TITLE "16:cjc020_8781"
    INDEX 01 00:57:25
  TRACK 69 AUDIO
    TITLE "0:"
    INDEX 01 00:58:62
